<?xml version="1.0" encoding="iso-8859-1"?>
<!-- Generator: Adobe Illustrator 16.0.0, SVG Export Plug-In . SVG Version: 6.00 Build 0)  -->
<!DOCTYPE svg PUBLIC "-//W3C//DTD SVG 1.1//EN" "http://www.w3.org/Graphics/SVG/1.1/DTD/svg11.dtd">
<svg version="1.1" id="Layer_1" xmlns="http://www.w3.org/2000/svg" xmlns:xlink="http://www.w3.org/1999/xlink" x="0px" y="0px"
	 width="411.995px" height="114.126px" viewBox="0 0 411.995 114.126" style="enable-background:new 0 0 411.995 114.126;"
	 xml:space="preserve">
<path style="fill:#ffffff;" d="M93.865,82.615l-3.449-2.431c-0.518,0.707-1.068,1.396-1.629,2.065
	c-0.097,0.114-0.185,0.237-0.283,0.35c-0.157,0.184-0.326,0.357-0.49,0.539c-0.598,0.668-1.204,1.331-1.842,1.959l0.012,0.009
	c-9.715,9.759-23.906,14.744-38.477,12.076c-4.331-0.79-8.4-2.203-12.13-4.129l-5.881,5.119c7.136,4.146,15.384,6.607,24.218,6.802
	c15.585,0.346,29.649-6.429,39.15-17.321l16.721,6.203L93.865,82.615z"/>
<path style="fill:#ffffff;" d="M80.624,19.152l-0.1,0.14c13.287,9.431,20.664,26,17.545,43.088
	c-0.842,4.616-2.397,8.918-4.518,12.835l4.688,5.379c4.417-7.3,7.053-15.813,7.254-24.958c0.353-15.768-6.586-29.981-17.707-39.485
	L94.141,0L80.624,19.152z"/>
<path style="fill:#ffffff;" d="M18.789,31.083c0.126-0.214,0.27-0.409,0.403-0.621c0.916-1.362,1.899-2.681,2.958-3.93l-0.145-0.057
	C31.654,14.338,47.03,9.051,63.264,12.016c4.387,0.804,8.497,2.242,12.254,4.2l5.617-4.891c-7.308-4.423-15.826-7.063-24.982-7.266
	c-16.679-0.372-31.632,7.411-41.091,19.683L0,17.818l18.768,13.251L18.789,31.083z"/>
<path style="fill:#ffffff;" d="M30.656,89.966c-1.596-1.108-3.113-2.314-4.547-3.614l-0.018,0.051
	c-10.586-9.73-16.122-24.468-13.193-39.581c0.735-3.781,1.826-7.275,3.217-10.497L10.8,30.222
	c-3.793,6.894-6.036,14.769-6.224,23.177C4.218,69.61,11.557,84.182,23.232,93.675l-9.629,20.451l12.761-18.077l4.241-6.006
	L30.656,89.966z"/>
<path style="fill:#ffffff;" d="M79.784,44.918c-0.306-0.312-0.814-0.314-1.135-0.02l-5.233,4.89l-2.489-0.796
	c-0.017-0.021-0.04-0.031-0.065-0.021l-5.215-1.668c-0.492-0.157-1.018,0.098-1.175,0.572c-0.028,0.082-0.027,0.163-0.031,0.245
	c-0.391-0.246-0.932-0.505-1.779-0.779c0.041-0.078,0.084-0.151,0.13-0.218c0.153-0.228,0.298-0.393,0.429-0.473
	c1.836-3.578,3.71-3.171,4.081-5.527c0.609-1.394-1.782-6.482,0.898-3.781c1.166,1.172,2.328-0.444,2.943-1.576
	c0.499,0.478,0.631,0.305,0.621,0.186c-0.187-0.421-0.021-1.101,0.029-1.28c0.896-0.712,0.444-0.484,1.081-0.85
	c0.111-0.066,0.151-0.19,0.161-0.326c0.053,0.005,0.096,0.002,0.122-0.027c0.042,0.079,0.095,0.085,0.231,0.086
	c-0.008-0.054,0.019-0.061,0.022-0.103c-0.052,0.011-0.03-0.049-0.086-0.042c0.009-0.158,0.202-0.264,0.212-0.406
	c0.178-0.021,0.141-0.661-0.027-0.734c0.065-0.01,0.047-0.076,0.135-0.096c-0.047-0.047,0.037-0.066,0.043-0.12
	c0.021,0.023,0.062,0.026,0.107,0.026c-0.025-0.089,0.051-0.089,0.104-0.169c-0.033,0.01-0.106,0.101-0.093-0.007
	c-0.053-0.003-0.091,0.01-0.11,0.045c-0.021-0.003-0.008-0.018,0.002-0.018c-0.004-0.03-0.06-0.015-0.068-0.04
	c0-0.026-0.006-0.065,0.021-0.068c-0.027-0.041-0.046,0.009-0.089-0.027c0.034-0.067-0.002-0.076-0.049-0.088
	c-0.003-0.042,0.037-0.035,0.024-0.086c-0.03-0.008-0.038,0.015-0.018,0.015c-0.022,0.049-0.071-0.045-0.058,0.049
	c-0.059,0.011-0.033-0.044-0.068-0.056c-0.062-0.033-0.015,0.058-0.059,0.047c0.019,0.036,0.096,0.02,0.125,0.046
	c0.011,0.054-0.051,0.029-0.06,0.062c-0.044,0.009,0.019-0.074-0.053-0.054c0.022,0.052,0.009,0.103-0.044,0.12
	c-0.017-0.063-0.002-0.288,0.079-0.309c-0.066,0.003-0.07-0.056-0.081-0.128c-0.04,0.004-0.042,0.023-0.024,0.049
	c-0.014-0.009-0.024-0.02-0.052-0.021c0.043-0.078-0.018-0.145,0.034-0.244c-0.08-0.012-0.016-0.126-0.056-0.197
	c0.037-0.016,0.035,0.007,0.003-0.052c0.005-0.014,0.019-0.019,0.021-0.034c0.016,0.003,0.011,0.022,0.016,0.035
	c0.06-0.025-0.044-0.049-0.011-0.104c0.051,0.037,0.049,0.015,0.107,0.041c-0.08,0.045-0.01,0.219,0.017,0.23
	c-0.001,0.018-0.021,0.014-0.036,0.015c0.03,0.06,0.089,0.057,0.043,0.144c0.064-0.032,0.126-0.062,0.123-0.167
	c-0.13-0.074-0.028-0.187-0.13-0.235c0.072-0.033,0.066,0.036,0.12,0.075c0.076-0.015,0.066-0.128,0.09-0.203
	c-0.037,0.075-0.043-0.047-0.058,0.032c-0.059-0.023,0.002-0.04-0.032-0.071c-0.061,0.012-0.066-0.018-0.094,0.042
	c-0.066-0.045,0.013-0.048,0.008-0.12c-0.03,0.029-0.061-0.002-0.049-0.058c0.076-0.041,0.015-0.015,0.062-0.099
	c-0.079-0.014-0.043,0.049-0.108,0.007c-0.018-0.02-0.073-0.092-0.029-0.108c0.004-0.013-0.007-0.015-0.017-0.015
	c-0.016-0.001-0.019-0.011-0.017-0.02c-0.039,0.012-0.055,0.086-0.027,0.122c-0.023,0-0.108-0.065-0.127,0.006
	c-0.015-0.003-0.017-0.017-0.035-0.018c0.033-0.099,0.263-0.182,0.129-0.292c0.018,0.025,0.012,0.039-0.02,0.035
	c-0.01,0.028,0.011,0.035,0.032,0.038c-0.055,0.046-0.037,0.053-0.098,0.1c-0.006-0.045-0.005-0.135-0.04-0.197
	c-0.043,0.051-0.116,0.071-0.12,0.166c-0.019-0.001-0.037-0.001-0.056-0.004c0.086-0.083-0.009-0.273,0.093-0.275
	c-0.027-0.028-0.007-0.092-0.065-0.091c0.003-0.021,0.033-0.013,0.056-0.013c-0.024-0.058-0.1-0.071-0.1-0.148
	c-0.042-0.003-0.081-0.006-0.126-0.009c-0.003,0.042-0.035,0.048-0.024,0.105c-0.062-0.042-0.002-0.07,0.009-0.125
	c-0.082,0.037-0.144,0.089-0.194,0.163c-0.028-0.101,0.012-0.165-0.018-0.265c-0.068-0.019-0.067-0.029-0.139-0.078
	c-0.088,0.17-0.156,0.223-0.137,0.374c-0.017,0-0.035-0.002-0.053-0.002c0.046-0.087-0.022-0.146,0.051-0.192
	c0.006-0.04-0.051-0.025-0.05-0.057c-0.005-0.014,0.008-0.016,0.017-0.014c-0.012-0.04-0.055,0.049-0.093,0.046
	c0.009-0.041-0.077-0.171-0.134-0.151c0.063-0.158,0.332-0.289,0.344-0.5c0.068,0.078,0.124-0.125,0.175-0.181
	c-0.043-0.017-0.023-0.116-0.059-0.181c-0.128-0.028-0.184-0.015-0.224,0.085c-0.064-0.037-0.064,0.009-0.111,0.031
	c-0.046-0.048,0.07-0.118,0.139-0.147c0.065-0.178,0.074-0.234,0.119-0.413c-0.064,0.039-0.098,0.039-0.117,0.096
	c-0.097-0.132-0.176,0.105-0.332,0.082c-0.101,0.235-0.469,0.167-0.671,0.249c-0.031-0.045,0.015-0.04-0.034-0.055
	c-0.024,0.009-0.037,0.037-0.04,0.068c-0.095-0.116-0.323,0.058-0.398-0.013c-0.079,0.026-0.115,0.099-0.224,0.09
	c-0.039,0.06-0.08,0.101-0.085,0.156c-0.03-0.036-0.044-0.007-0.09-0.007c0.009-0.131,0.006-0.281,0.136-0.345
	c0.06,0.068,0.159,0.005,0.271,0.02c0.016-0.037,0.058-0.046,0.06-0.098c-0.06-0.045-0.08-0.033-0.143-0.01
	c-0.004-0.057-0.04-0.139,0.011-0.157c0.099,0.124,0.268-0.04,0.297-0.12c-0.01-0.06-0.041-0.021-0.054,0.012
	c-0.035-0.053,0.004-0.099-0.065-0.129c0.028-0.026,0.107-0.004,0.111-0.06c0.086,0.079,0.173,0.008,0.226-0.09
	c0.057,0.016,0.021,0.05,0.012,0.088c0.089-0.043,0.117-0.06,0.143-0.183c-0.072-0.01-0.125,0.063-0.259,0.035
	c-0.01,0.036,0.01,0.047,0.014,0.07c-0.046-0.014-0.187-0.029-0.198-0.032c-0.057-0.073,0.029-0.088-0.024-0.176
	c-0.031,0.062-0.04,0.028-0.113,0.047c0.023,0.024,0.068,0.027,0.089,0.056c-0.007,0.022-0.033,0.013-0.056,0.015
	c0.019-0.045-0.083-0.024-0.083-0.093c-0.035,0.039-0.032,0.009-0.074,0.029c0.007,0.132-0.095,0.147-0.163,0.199
	c0.074,0.165-0.369,0.14-0.521,0.191c-0.027,0.007-0.045,0.065-0.057,0.068c-0.016-0.002-0.038-0.061-0.053-0.059
	c-0.043,0.008-0.133,0.077-0.206,0.074c0.008,0.124-0.346,0.155-0.419,0.057c-0.032,0.034-0.094,0.034-0.164,0.024
	c0.008,0.049-0.022,0.057-0.06,0.059c-0.001-0.002-0.001-0.002-0.001-0.003c-0.001,0.001-0.001,0.002-0.002,0.003
	c-0.05,0.002-0.115-0.008-0.146,0.031c-0.078-0.27-0.585,0.011-0.704-0.242c-0.113,0.054-0.231-0.014-0.306-0.074
	c-0.073,0.037-0.097,0.009-0.159-0.029c-0.002,0.018-0.01,0.028-0.025,0.031c0.093,0.103,0.094,0.101,0.147,0.203
	c-0.145,0.087-0.387,0.053-0.578,0.01c0.025-0.007,0.006-0.064,0.04-0.065c0.004-0.05-0.07-0.039-0.124-0.043
	c-0.01,0.038,0.087,0.102-0.006,0.102c0.099,0.043,0.138,0.179,0.309,0.236c0,0.029-0.022,0.032-0.022,0.064
	c-0.118,0.036-0.21-0.091-0.305-0.07c0.018,0.053,0.012,0.13,0.098,0.13c-0.027,0.084,0.17,0.226,0.072,0.321
	c-0.104-0.097-0.162-0.068-0.222-0.208c-0.01,0.019-0.01,0.065-0.045,0.102c-0.029,0.003-0.032-0.017-0.034-0.039
	c-0.152,0.154-0.444-0.119-0.553,0.154c0.084-0.012,0.093,0.031,0.102,0.076c-0.069-0.011-0.076,0.056-0.164,0.024
	c-0.058,0.032,0.007,0.147-0.008,0.14c0.021,0.017,0.074-0.013,0.107-0.009c0.025,0.004,0.029,0.074,0.037,0.001
	c0.043,0.085,0.072,0.084,0.075,0.199c-0.016-0.001-0.009-0.023-0.013-0.035c-0.096,0.012-0.145,0.075-0.212,0.125
	c0.036,0.032,0.075,0.058,0.083,0.112c-0.009,0.037-0.024-0.026-0.053,0.012c-0.009,0.005-0.006-0.126-0.035-0.036
	c-0.014-0.007-0.017-0.02-0.035-0.02c0-0.041,0.009-0.064,0.04-0.068c-0.002-0.022-0.033-0.022-0.034-0.003
	c-0.037-0.007,0.028-0.042-0.012-0.071c0.033,0.001,0.036,0.023,0.07,0.021c-0.009-0.015-0.018-0.027-0.015-0.052
	c-0.116-0.014-0.149,0.115-0.184,0.038c-0.006,0.041,0.012,0.057,0.048,0.057c0.002,0.033-0.024,0.035-0.021,0.071
	c-0.129-0.033-0.321-0.166-0.44-0.157c0.046,0.154,0.137,0.078,0.146,0.239c-0.068-0.042-0.122,0.143-0.19,0.092
	c-0.056,0.134,0.08,0.157,0.052,0.249c0.041-0.004,0.102-0.032,0.111,0.025c0.038-0.027,0.056-0.034,0.109-0.009
	c-0.003-0.016-0.019-0.018-0.016-0.039c0.019,0.009,0.033,0.002,0.037-0.014c-0.01,0.063,0.086,0.013,0.144,0.046
	c-0.002,0.088-0.144,0.019-0.138,0.114c-0.033-0.012-0.01-0.069-0.067-0.057c-0.016,0.053,0.013,0.064,0.009,0.107
	c0.04-0.054,0.09,0.003,0.166-0.022c-0.076,0.053,0.043,0.043-0.047,0.118c-0.011-0.073-0.053-0.016-0.045-0.091
	c-0.051-0.008-0.066,0.023-0.04,0.049c-0.016-0.036-0.081-0.029-0.107-0.061c-0.026,0.012-0.035,0.036-0.038,0.07
	c-0.07-0.046-0.059,0.028-0.13,0.023c0.022-0.022,0.05-0.03,0.077-0.046c0-0.068-0.058,0.012-0.069-0.04
	c-0.038,0.066-0.066,0.068-0.131,0.026c-0.053-0.033,0.047,0.03,0.051,0.055c-0.035,0.01-0.087,0.015-0.127,0.028
	c0.008,0.012,0.015,0.029,0.01,0.054c-0.048-0.009-0.094-0.032-0.156-0.063c-0.056,0.023,0.022,0.089-0.026,0.103
	c0.07,0.035,0.07,0.032,0.14,0.077c0-0.04,0.042-0.037,0.059-0.063c0.003,0.014,0,0.085,0.068,0.038c0,0.03-0.016,0.044-0.037,0.049
	c0.028,0.013,0.068-0.007,0.129-0.026c-0.071,0.062-0.042,0.089-0.131,0.062c-0.01,0.029,0.013,0.031,0.011,0.052
	c-0.018-0.001-0.034-0.003-0.052-0.003c-0.041-0.012,0.02-0.024-0.019-0.053c-0.03,0.024-0.04,0.013-0.03-0.037
	c-0.05-0.002-0.013,0.098-0.077,0.08c0.011,0.022,0.013,0.04,0.011,0.056c-0.009,0.007-0.017,0.014-0.027,0.019
	c-0.006-0.03-0.031-0.046-0.078-0.045c0.041-0.021-0.021-0.044,0.021-0.05c-0.023-0.007-0.101-0.036-0.125-0.045
	c-0.033,0.018-0.02,0.093-0.043,0.121c0.055-0.076,0.06,0.021,0.076,0.058c-0.021-0.001-0.044,0.005-0.063,0.002
	c-0.038,0.073-0.074,0.06-0.148,0.062c0.012,0.016,0.012,0.028,0.003,0.042c0.131,0.035,0.132,0.032,0.236,0.088v0.001
	c-0.076,0.153-0.295,0.25-0.477,0.317c0.017-0.021-0.03-0.06-0.003-0.077c-0.027-0.041-0.083,0.009-0.129,0.029
	c0.009,0.04,0.129,0.042,0.054,0.093c0.107-0.019,0.219,0.075,0.392,0.029c0.016,0.026-0.002,0.044,0.019,0.071
	c-0.08,0.091-0.227,0.032-0.294,0.098c0.046,0.039,0.085,0.103,0.156,0.056c0.025,0.087,0.266,0.102,0.237,0.234
	c-0.136-0.026-0.168,0.029-0.3-0.057c0.004,0.023,0.032,0.06,0.023,0.107c-0.023,0.019-0.04,0.005-0.049-0.01
	c-0.041,0.21-0.441,0.136-0.376,0.423c0.061-0.055,0.098-0.023,0.129,0.01c-0.065,0.027-0.034,0.085-0.121,0.106
	c-0.033,0.061,0.087,0.119,0.07,0.121c0.031,0.006,0.055-0.048,0.085-0.064c0.023-0.007,0.068,0.044,0.032-0.02
	c0.085,0.053,0.107,0.036,0.178,0.127c-0.016,0.008-0.025-0.014-0.034-0.023c-0.073,0.063-0.078,0.142-0.102,0.217
	c0.028,0.008,0.057,0.014,0.084,0.023c-0.004,0.016-0.009,0.03-0.014,0.046c-0.019-0.024-0.043-0.051-0.026,0.008
	c-0.017,0.005-0.026-0.008-0.04,0.002c-0.025-0.031-0.028-0.061-0.004-0.079c-0.016-0.015-0.04,0.003-0.03,0.017
	c-0.038,0.016-0.002-0.054-0.054-0.049c0.025-0.021,0.044-0.005,0.071-0.02c-0.011-0.008-0.031-0.017-0.043-0.037
	c-0.101,0.049-0.055,0.175-0.129,0.127c0.019,0.038,0.042,0.045,0.074,0.025c0.019,0.025,0,0.04,0.02,0.067
	c-0.125,0.046-0.362,0.032-0.458,0.109c0.127,0.101,0.16-0.011,0.26,0.12c-0.08,0.001-0.019,0.182-0.105,0.179
	c0.031,0.14,0.154,0.087,0.189,0.18c0.031-0.03,0.065-0.083,0.102-0.039c0.013-0.03,0.027-0.044,0.05-0.054
	c-0.016,0.089-0.029,0.169-0.041,0.242c-0.017,0.004-0.026,0.046-0.053,0.022c0.005,0.073-0.016,0.088-0.093,0.088
	c-0.062-0.001,0.055,0,0.074,0.02c-0.028,0.024-0.065,0.061-0.093,0.092c0.016,0.007,0.032,0.015,0.041,0.035
	c-0.044,0.019-0.095,0.026-0.167,0.031c-0.031,0.047,0.051,0.065,0.038,0.094l-0.587,0.297c0,0-1.135,0.134-1.109-0.228
	c0.026-0.36,0.141-0.858,0.162-1.15c0.02-0.292,0.752-2.195,0.752-2.195s0.219-1.47-0.164-1.9c-0.379-0.423-1.108-1.238-1.108-1.238
	l-0.98-2.032c0,0-2.112-1.961-3.602-2.069c-1.496-0.106-4.461-0.066-5.776,1.035c-1.318,1.105-2.562,4.319-2.595,4.823
	c-0.038,0.508-0.588,3.007-0.588,3.007s-1.004,0.909-1.284,1.142c-0.279,0.234-1.632,2.859-1.632,2.859s-1.53,3.127-2.061,5.342
	c-0.535,2.212-2.164,4.562-1.228,6.178c0.629,1.087,1.711,2.156,3.951,2.315c2.238,0.162,2.707-0.099,2.707-0.099
	s0.043,2.543,1.153,3.784c0.822,0.916-0.332,2.698-0.332,2.698l-0.499,5.916c0,0-1.712,1.908-1.758,2.561
	c-0.047,0.647,0.577,1.347,0.577,1.347s-3.582,1.85-4.538,2.648c-0.956,0.805-2.069,1.667-2.742,1.619
	c-0.67-0.049-2.019-0.072-2.019-0.072l-1.688,0.534c0,0-1.444,0.259-1.49,0.905c-0.046,0.649,0.809,2.31,1.165,3.644
	c0.352,1.332,0.774,4.917,1.369,4.961c0.599,0.042,2.361,0.529,2.735,0.556c0.372,0.026,0.704-0.927,0.322-1.357
	c-0.382-0.421-0.751-2.08-0.751-2.08s0.29-1.94,0.309-2.233c0.021-0.285,0.815-1.968,0.815-1.968s1.807-1.107,2.179-1.079
	c0.373,0.027,3.107-0.433,3.747-0.968c0.635-0.53,2.497-1.347,2.497-1.347s2.214,0.654,2.633,0.914
	c0.67,0.048,1.318-1.104,1.318-1.104l0.975-1.63l0.303-1.072c0,0,0.366,0.102,0.521,0.582c0.155,0.484-0.21,1.403-0.21,1.403
	l0.095,0.73c0,0-0.181,2.528-0.317,4.406c-0.132,1.877-0.163,3.325-0.163,3.325s-0.693,1.874-1.053,2.175
	c-0.359,0.303-1.21,1.216-1.21,1.216s-0.737,1.365-0.427,1.714c0.316,0.347,2.976,0.36,2.976,0.36l3.47,0.754l2.312,0.164
	l1.496,0.086c0,0,1.153-1.419-1.831-1.634c-2.987-0.212-4.058-2.028-4.058-2.028l0.966-2.979l1.503-4.248l0.665-3.002
	c0,0,1.641,0.117,2.089,0.149c0.449,0.032,0.703-9.817,0.703-9.817l-0.356-5.498l-0.856-2.174c0,0-1.676-1.919-1.053-1.876
	c0.367,0.027,0.627-0.344,0.846-0.879c0.337,0.103,0.741,0.217,1.224,0.341c0.002-0.008,0.006-0.014,0.008-0.021
	c0.484,0.102,0.953,0.174,1.339,0.194c0.249,0.013,0.515,0.044,0.779,0.082c0.007,0.001,0.013,0.002,0.019,0.003
	c0,0,0.013,0.002,0.016,0.002c0.819,0.122,1.613,0.326,1.831,0.362c0.209,0.034,0.767,0.412,1.075,0.629
	c0.048-0.028,0.103-0.039,0.153-0.064c0.116,0.072,0.213,0.135,0.228,0.151c0.032,0.031,0.225-0.078,0.389,0.001
	c0.415-0.238,0.812-0.219,1.283-0.271c0.008-0.052,0.095-0.075,0.095-0.075l0.672,0.078c0.028,0.01,0.058,0.013,0.086,0.023
	c0.185,0.023,0.327,0.045,0.327,0.045c0.036-0.003,0.144,0.008,0.277,0.028c0.034,0,0.048-0.003,0.074-0.004l0.563,0.07
	c0.13-0.06,0.029-0.2,0.06-0.285c-0.239-0.045-0.577-0.085-0.837-0.117c0,0-1.075-0.222-1.172-0.251
	c-0.102-0.025-0.056-0.129,0-0.151c0.006-0.002,0.028-0.001,0.053-0.001c0.375,0.035,0.923,0.097,0.923,0.097l0.025-0.002
	c0.034,0.003,0.056,0.006,0.082,0.009l2.02,0.645c0.492,0.158,1.019-0.098,1.178-0.574c0.012-0.035,0.006-0.07,0.013-0.105
	l5.299-4.949C80.079,45.717,80.092,45.226,79.784,44.918 M73.453,30.756c0.034,0.034-0.013,0.031-0.005,0.087
	c-0.031-0.013-0.075-0.014-0.087-0.04C73.406,30.806,73.401,30.75,73.453,30.756 M73.318,30.607c0.025,0.091-0.004,0.1-0.048,0.17
	c0.021,0.003,0.014,0.024-0.019,0.018C73.281,30.713,73.231,30.634,73.318,30.607 M73.033,31.06c-0.012,0.123,0.057,0.18,0.09,0.267
	c0.001-0.026,0.017-0.039,0.038-0.048c-0.071,0.105-0.002,0.246-0.059,0.312c-0.001-0.017-0.013-0.021-0.033-0.019
	C73.167,31.394,72.876,31.223,73.033,31.06 M72.682,29.875c0.033,0.046-0.02,0.118-0.082,0.116
	C72.576,29.953,72.629,29.883,72.682,29.875 M72.21,28.367c0.042,0.026-0.036,0.051,0.011,0.074
	c0.024-0.028,0.025-0.046,0.006-0.074c0.013-0.006,0.073-0.04,0.072,0.006c-0.039,0.04-0.062,0.108-0.134,0.116
	c0.008-0.068-0.015-0.011-0.055-0.023C72.117,28.401,72.188,28.413,72.21,28.367 M71.9,29.38c0.091,0.005,0.063-0.117,0.139-0.129
	c0.008,0.188-0.116,0.326-0.197,0.443C71.903,29.607,71.917,29.502,71.9,29.38 M71.754,28.649c-0.006,0.139-0.065,0.22-0.115,0.308
	C71.661,28.907,71.674,28.696,71.754,28.649 M71.601,29.5c0.014,0.071-0.006,0.071-0.01,0.155
	C71.511,29.65,71.542,29.505,71.601,29.5 M71.333,29.496c0.061,0.052,0.04,0.078,0.08,0.131c0.023-0.052,0.009-0.057-0.01-0.106
	c0.026,0.001,0.04-0.005,0.053-0.016c0.025,0.059,0.001,0.077-0.009,0.14c-0.046-0.003-0.096-0.007-0.145-0.011
	C71.283,29.587,71.286,29.528,71.333,29.496 M71.215,29.331c0.02,0.052-0.009,0.117-0.065,0.137
	C71.159,29.409,71.137,29.312,71.215,29.331 M71.078,28.954c0.011,0.012,0.115,0.031,0.048,0.055c0-0.021-0.017-0.011-0.031-0.003
	c-0.009-0.039-0.041-0.054-0.032-0.109C71.132,28.902,71.069,28.914,71.078,28.954 M70.646,29.169
	c-0.003-0.067,0.022-0.103,0.08-0.1C70.719,29.125,70.696,29.158,70.646,29.169 M70.978,28.857
	c-0.001,0.057,0.126,0.092,0.063,0.148c-0.015-0.05-0.126,0.098-0.24,0.015C70.82,28.923,70.881,28.872,70.978,28.857
	 M70.804,28.954c-0.08,0.081-0.162-0.011-0.292,0.031c-0.017-0.025-0.015-0.066-0.008-0.11
	C70.67,28.835,70.722,28.972,70.804,28.954 M70.88,28.201c-0.01,0.041-0.02,0.083-0.08,0.064
	C70.808,28.224,70.818,28.186,70.88,28.201 M70.443,28.413c0.033,0.033,0.119-0.04,0.186-0.035c0.009,0.006,0.038,0.083-0.005,0.086
	c0-0.072-0.013-0.004-0.037-0.001c0.018-0.037-0.056-0.073-0.05-0.042c0.006,0.012,0.069,0.06,0.012,0.073
	c-0.039-0.096-0.138,0.038-0.184-0.014C70.431,28.501,70.387,28.401,70.443,28.413 M70.154,28.659c-0.021,0-0.014,0.017-0.002,0.035
	c-0.019,0.006-0.04,0.015-0.055,0.029c-0.067-0.002-0.125-0.016-0.123-0.077C70.042,28.636,70.104,28.633,70.154,28.659
	 M69.86,28.444c0.022,0.094-0.083,0.081-0.154,0.129C69.733,28.503,69.812,28.483,69.86,28.444 M69.5,28.945
	c0.077,0.028,0.084,0.018,0.092-0.026c-0.001,0.027,0.049,0.01,0.052,0.038c-0.067,0.012-0.067,0.1-0.15,0.094
	c0.002-0.008-0.004-0.009-0.005-0.014c0-0.025-0.001-0.05-0.005-0.079C69.489,28.953,69.496,28.95,69.5,28.945 M69.261,28.472
	c-0.007,0.068,0.028-0.002,0.053,0.037c0.009,0.051-0.039,0.034-0.042,0.066c-0.053,0.013-0.046-0.027-0.091-0.023
	C69.197,28.513,69.201,28.464,69.261,28.472 M69.134,28.789c0.008-0.011,0.018-0.02,0.048-0.008
	c0.003,0.053-0.041,0.051-0.043,0.103c0.021,0.002,0.037,0.019,0.054,0.029c0.002,0.008-0.004,0.011-0.001,0.019
	c-0.039,0-0.051,0.01-0.057,0.025c-0.007-0.024-0.01-0.061-0.016-0.088c0.009-0.017,0.015-0.037,0.023-0.051
	C69.139,28.805,69.137,28.8,69.134,28.789 M68.34,28.934c0.03,0.038,0.057,0.052,0.027,0.106c-0.09-0.006-0.139,0.029-0.188,0.074
	c-0.067-0.001-0.111-0.023-0.138-0.063c-0.029,0.041-0.055-0.036-0.074,0.014c-0.005,0.026,0.126,0.021,0.049,0.055
	c-0.051-0.065-0.153,0.009-0.135-0.115c0.084-0.022,0.126,0.046,0.195,0.047c0.078-0.089,0.022-0.132,0.122-0.165
	c-0.01,0.039-0.004,0.063,0.03,0.073C68.305,28.932,68.296,28.973,68.34,28.934 M67.942,28.606c0.001-0.004,0.009-0.002,0.011-0.006
	c-0.003,0.001-0.004,0.004-0.007,0.005C67.945,28.605,67.943,28.605,67.942,28.606 M67.958,28.597
	c0.035-0.049,0.139-0.037,0.188-0.029c-0.049,0.022-0.124,0.021-0.187,0.035C67.958,28.6,67.959,28.6,67.958,28.597 M68.198,28.358
	c-0.038,0.011-0.102,0.055-0.108-0.006C68.12,28.36,68.182,28.307,68.198,28.358 M67.948,28.324c0.007,0.041,0.05,0.045,0.016,0.001
	c0.024-0.004,0.037-0.021,0.074-0.012c-0.04,0.052,0.068,0.06,0.012,0.072c-0.017-0.001-0.019-0.018-0.034-0.02
	c-0.038,0.019-0.079,0.008-0.089-0.005C67.961,28.356,67.916,28.327,67.948,28.324 M67.889,28.603
	c-0.012-0.007-0.174,0.028-0.141-0.05C67.795,28.571,67.917,28.543,67.889,28.603 M67.749,28.952
	c0.033,0.006,0.046-0.015,0.065-0.027c0.018-0.001,0.037-0.008,0.05,0.008c0.007-0.012,0.02-0.016,0.024-0.031
	c-0.019-0.002-0.016,0.02-0.02,0.032c-0.001-0.002-0.003,0-0.004-0.001c-0.025,0.05-0.074,0.074-0.136,0.083
	C67.747,28.997,67.763,28.979,67.749,28.952 M67.375,29.064c-0.01,0.034-0.028,0.066-0.041,0.098
	c-0.046,0.005-0.087,0.015-0.099-0.011C67.278,29.097,67.323,29.077,67.375,29.064 M67.134,29.265
	c-0.033,0.021-0.079,0.127-0.113,0.083C67.055,29.326,67.096,29.217,67.134,29.265 M66.594,29.476
	c0.132,0.009,0.107,0.08,0.196,0.048c-0.002,0.018-0.002,0.033-0.002,0.051c-0.111-0.019-0.151-0.062-0.197-0.066
	C66.612,29.508,66.606,29.493,66.594,29.476 M66.606,30.088c0,0.008,0.004,0.008,0.006,0.014c-0.017,0.009-0.032,0.017-0.049,0.022
	C66.572,30.108,66.583,30.092,66.606,30.088 M66.569,30.236c0.006,0.01,0.009,0.012,0.012,0.016
	c-0.013,0.017-0.028,0.034-0.041,0.052C66.535,30.278,66.536,30.253,66.569,30.236 M66.532,30.084
	c-0.041,0.012-0.032,0.029-0.032,0.046c-0.011,0-0.025,0.006-0.033,0.003c-0.005,0.023-0.023,0.043-0.047,0.063
	C66.423,30.133,66.435,30.074,66.532,30.084 M66.267,30.241c0.033,0.016,0.051,0.044,0.068,0.075
	c-0.039,0.03-0.111,0.057-0.114,0.109c-0.039-0.032-0.08-0.038-0.121-0.035C66.113,30.293,66.21,30.288,66.267,30.241
	 M66.021,30.383c0.009,0.008,0.026,0.008,0.038,0.012c-0.014,0.004-0.03,0.011-0.045,0.019
	C66.02,30.406,66.023,30.398,66.021,30.383 M65.908,30.409c0.03-0.002,0.033,0.02,0.041,0.038c-0.012,0.007-0.022,0.015-0.034,0.022
	c-0.007-0.016-0.01-0.033-0.027-0.045C65.904,30.43,65.907,30.421,65.908,30.409 M65.916,31.355c0.015-0.115-0.056-0.124,0.008-0.2
	c0.016,0.033,0.036,0.053,0.065,0.042c0.048-0.065,0.066-0.028,0.078-0.08c0.017,0.005,0.03,0.01,0.042,0.015
	c-0.025,0.074-0.052,0.147-0.069,0.218c-0.001,0.001-0.001,0.001-0.001,0.002c-0.06,0.037-0.108,0.038-0.155,0.023
	c0.002,0.047-0.062,0-0.053,0.048c0.013,0.028,0.12-0.049,0.074,0.02c-0.077-0.029-0.121,0.092-0.179-0.023
	C65.783,31.355,65.857,31.392,65.916,31.355 M65.697,30.91c-0.033,0.053-0.103,0.091-0.145,0.14
	C65.525,30.986,65.647,30.937,65.697,30.91 M65.611,30.714c0,0.003,0.002,0.002,0.002,0.005c0-0.001,0.002,0,0.003-0.001
	c-0.023,0.031-0.052,0.093-0.088,0.045C65.556,30.753,65.578,30.701,65.611,30.714 M65.671,31.368
	c-0.001-0.013,0.008-0.024,0.002-0.039c-0.016,0.01-0.001,0.025,0,0.038L65.671,31.368c0.008,0.071-0.028,0.13-0.103,0.177
	c-0.014-0.026-0.03-0.043-0.049-0.051C65.598,31.43,65.609,31.342,65.671,31.368 M65.467,30.765L65.467,30.765L65.467,30.765z
	 M65.504,31.08c-0.014,0.003-0.131,0.117-0.146,0.035C65.408,31.107,65.491,31.018,65.504,31.08 M65.398,31.678
	c0.04,0.06-0.105,0.127,0.016,0.133c-0.07,0.014-0.108,0.098-0.144,0.077C65.282,31.786,65.325,31.74,65.398,31.678 M65.256,32.039
	c-0.002,0.004-0.002,0.012-0.003,0.016c-0.009,0.004-0.018,0.011-0.028,0.016C65.23,32.053,65.233,32.032,65.256,32.039
	 M64.927,32.502C64.926,32.502,64.926,32.503,64.927,32.502l-0.002,0.001C64.925,32.502,64.926,32.502,64.927,32.502 M64.735,33.263
	c-0.001,0.003-0.002,0.008-0.002,0.011c-0.002-0.001-0.003-0.001-0.004-0.002C64.734,33.269,64.731,33.265,64.735,33.263
	 M64.606,33.84L64.606,33.84l-0.001,0.002L64.606,33.84z M67.283,49.8c-0.264-0.088-0.523-0.191-0.811-0.332l1.312,0.419
	C67.625,49.872,67.443,49.84,67.283,49.8"/>
<path style="fill:#ffffff;" d="M75.081,50.888c-0.035,0.014-0.062,0.032-0.07,0.057c0.058,0.011,0.12,0.022,0.167,0.033
	C75.258,50.998,75.126,50.924,75.081,50.888"/>
<path style="fill:#ffffff;" d="M64.054,28.565c-0.003-0.046,0.015-0.107,0.024-0.163l-0.066,0.215
	C64.018,28.591,64.044,28.589,64.054,28.565"/>
<path style="fill:#ffffff;" d="M64.078,28.402l0.127-0.414C64.15,28.104,64.103,28.258,64.078,28.402"/>
<path style="fill:#ffffff;" d="M126.31,40.847V18.555h1.146l32.786,35.076l0.403,0.43c0.138-1.59,0.204-4.023,0.204-7.294V25.416
	l-0.204-5.283l-0.102-0.536c1.258,0.136,2.233,0.202,2.927,0.202c0.287,0,0.837-0.066,1.653-0.202
	c-0.036,0.151-0.07,0.406-0.101,0.763c-0.035,0.356-0.07,0.618-0.103,0.786l-0.305,6.587l-0.633,15.805l-0.204,14.896l0.204,7.497
	h-0.917c-1.694-1.948-3.053-3.516-4.067-4.7l-10.93-12.075l-18.528-19.772l-0.101,6.253v9.886v5.311l0.101,7.906l0.408,6.354
	c-0.494-0.136-1.254-0.204-2.286-0.204c-1.053,0-1.815,0.068-2.291,0.204c0.272-3.913,0.443-6.829,0.508-8.744L126.31,40.847z"/>
<path style="fill:#ffffff;" d="M211.559,21.146c8.131,4.323,12.197,11.058,12.197,20.208c0,4.881-1.076,9.208-3.227,12.988
	c-2.153,3.778-5.156,6.69-9.01,8.729c-3.854,2.041-8.248,3.063-13.178,3.063c-5.204,0-9.741-1.104-13.61-3.316
	c-3.873-2.212-6.902-5.579-9.088-10.104c-0.424-1.051-0.905-2.821-1.449-5.311c-0.204-1.68-0.305-3.348-0.305-5.008
	c0-7.252,2.498-13.114,7.496-17.588c4.812-4.304,10.498-6.456,17.058-6.456C203.626,18.351,207.998,19.287,211.559,21.146
	 M213.03,27.197c-1.643-2.067-3.685-3.659-6.122-4.778c-2.445-1.12-5.018-1.68-7.73-1.68c-4.236,0-7.948,1.18-11.131,3.534
	c-2.713,1.983-4.671,4.681-5.883,8.096c-1.213,3.416-1.821,7.069-1.821,10.965c0,6.153,1.591,11.042,4.78,14.665
	c3.489,4.035,7.963,6.054,13.422,6.054c3.032,0,5.82-0.712,8.375-2.124c2.55-1.415,4.65-3.332,6.3-5.743
	c1.655-2.416,2.768-5.143,3.345-8.173c0.422-1.93,0.636-3.939,0.636-6.025c0-3.08-0.292-5.8-0.881-8.146
	C215.738,31.497,214.641,29.281,213.03,27.197 M205.991,5.746c0,0.286,0.013,0.524,0.036,0.71c0.027,0.186,0.039,0.35,0.039,0.484
	c0,0.136-0.021,0.268-0.063,0.394c-0.041,0.126-0.132,0.268-0.27,0.42c-0.132,0.154-0.322,0.334-0.57,0.544
	c-0.244,0.213-0.561,0.471-0.95,0.777l-10.424,6.56h-2.388l8.437-8.314c0.304-0.305,0.597-0.617,0.879-0.942
	c0.279-0.322,0.558-0.622,0.836-0.901c0.28-0.279,0.559-0.515,0.84-0.711c0.282-0.194,0.574-0.319,0.877-0.368
	C204.728,4.399,205.633,4.848,205.991,5.746"/>
<path style="fill:#ffffff;" d="M237.074,18.86l9.05,17.613c3.267,6.203,6.674,12.267,10.216,18.199
	c1.086-1.98,2.029-3.689,2.836-5.121c0.804-1.433,1.587-2.877,2.351-4.335l8.744-16.139c0.403-0.73,1.268-2.252,2.58-4.56
	c1.313-2.315,2.37-4.199,3.165-5.657h0.811l3.229,28.948c0.32,2.846,0.71,5.955,1.158,9.317c0.449,3.365,0.788,6.018,1.026,7.968
	c-1.219-0.136-2.185-0.204-2.896-0.204c-1.525,0-2.634,0.068-3.328,0.204l-2.085-24.247c-0.424-3.306-0.839-6.604-1.245-9.889
	l-9.382,17.157L259.772,55c-0.528,1.036-1.207,2.441-2.044,4.221c-0.842,1.778-1.695,3.566-2.556,5.361h-0.714l-3.658-7.499
	c-1.054-2.218-2.301-4.74-3.736-7.561c-1.441-2.818-2.95-5.725-4.523-8.716c-1.577-2.992-3.296-6.275-5.16-9.849l-2.924,26.027
	l-0.306,6.657v1.451c-0.27,0-0.687-0.019-1.245-0.054c-0.558-0.032-1.008-0.051-1.347-0.051c-0.913,0-1.611,0.036-2.086,0.104
	v-0.637l2.289-13.725l3.229-24.171c0.135-0.881,0.277-1.979,0.431-3.289c0.152-1.315,0.324-2.785,0.509-4.412H237.074z"/>
<path style="fill:#ffffff;" d="M308.906,18.657l18.857,44.046l1.144,2.391c-1.525-0.136-2.638-0.204-3.33-0.204
	c-1.677,0-2.898,0.068-3.661,0.204l-0.607-1.983l-3.027-7.906l-3.226-7.905l-8.005-0.227l-8.975,0.227
	c-3.271,8.34-5.458,14.268-6.56,17.794c-0.472-0.136-1.238-0.204-2.286-0.204c-0.544,0-1.37,0.068-2.489,0.204l20.818-46.437
	H308.906z M314.014,44.478l-7.396-17.079l-7.27,17.079h8.008H314.014z"/>
<path style="fill:#ffffff;" d="M341.615,64.89c-1.136,0-2.807,0.068-5.005,0.204l0.301-6.56l0.204-30.934l-0.204-8.107h1.679h13.316
	h3.132c3.571,0,6.619,0.268,9.146,0.802c2.523,0.534,4.854,1.692,6.991,3.469c2.421,1.982,4.22,4.415,5.401,7.296
	c1.177,2.882,1.761,5.997,1.761,9.354c0,4.354-0.648,8.03-1.95,11.031c-1.697,3.491-3.851,6.335-6.458,8.538
	c-1.78,1.56-3.734,2.699-5.857,3.42c-2.129,0.718-4.244,1.165-6.355,1.333c-2.11,0.17-4.739,0.253-7.894,0.253L341.615,64.89z
	 M342.656,62.067c0.796,0.036,1.943,0.115,3.433,0.241c1.49,0.131,2.735,0.193,3.734,0.193c3.067,0,5.604-0.146,7.603-0.435
	c1.779-0.322,3.377-0.837,4.802-1.55c1.896-0.913,3.407-1.974,4.526-3.176c1.116-1.205,2.098-2.791,2.946-4.753
	c1.538-3.067,2.312-6.812,2.312-11.234c0-1.764-0.168-3.618-0.509-5.568c-0.336-1.948-0.901-3.784-1.69-5.515
	c-0.784-1.727-1.825-3.133-3.111-4.22c-2.087-1.727-4.296-2.819-6.636-3.277c-2.335-0.459-5.334-0.689-8.997-0.689
	c-1.183,0-2.625,0.049-4.319,0.142c-1.693,0.096-2.991,0.158-3.889,0.192c-0.291,6.488-0.434,11.062-0.434,13.722v18.225
	L342.656,62.067z"/>
<path style="fill:#ffffff;" d="M404.699,19.697c1.524,0,3.813-0.063,6.861-0.204c0,0.204-0.034,0.519-0.102,0.944
	c-0.067,0.421-0.103,0.769-0.103,1.041c0,0.898,0.069,1.559,0.204,1.982c-0.66-0.034-1.562-0.101-2.705-0.203
	c-1.143-0.101-2.218-0.176-3.218-0.23l-6.661-0.202h-4.9l-0.306,9.987v2.923v3.842h6.761l3.53-0.208
	c0.698-0.033,1.699-0.082,3.003-0.148c1.305-0.07,2.285-0.121,2.947-0.155c-0.205,1.271-0.308,1.931-0.308,1.983
	c0,0.05,0.103,0.71,0.308,1.98c-2.491-0.285-4.475-0.432-5.95-0.432l-3.633-0.1h-2.923h-3.735v5.311v8.335
	c0,2.559,0.034,4.5,0.102,5.821c4.015,0,8.002-0.1,11.97-0.306c1.897,0,3.916-0.174,6.052-0.531c0,1.744,0.029,3.066,0.101,3.967
	l-4.602-0.104c-3.59-0.134-6.327-0.202-8.212-0.202c-0.623,0-1.593,0.019-2.898,0.052c-1.304,0.035-2.285,0.051-2.945,0.051
	c-0.558,0-1.46,0.017-2.693,0.05c-1.237,0.033-2.177,0.05-2.821,0.05l0.43-8.333l0.103-22.799l-0.103-5.823
	c0-0.794-0.11-3.64-0.328-8.541l7.193,0.204H404.699z"/>
<polygon style="fill:#ffffff;" points="132.736,84.525 128.199,84.525 128.199,88.749 133.273,88.749 133.273,90.018 
	126.671,90.018 126.671,78.306 133.015,78.306 133.015,79.573 128.199,79.573 128.199,83.275 132.736,83.275 "/>
<path style="fill:#ffffff;" d="M152.432,88.176c0.678,0.435,1.649,0.765,2.692,0.765c1.547,0,2.451-0.817,2.451-1.998
	c0-1.077-0.625-1.721-2.207-2.313c-1.912-0.693-3.093-1.701-3.093-3.336c0-1.823,1.511-3.182,3.788-3.182
	c1.181,0,2.068,0.279,2.572,0.574l-0.416,1.235c-0.366-0.226-1.148-0.556-2.208-0.556c-1.6,0-2.208,0.955-2.208,1.754
	c0,1.096,0.713,1.635,2.329,2.26c1.983,0.766,2.973,1.721,2.973,3.442c0,1.805-1.321,3.388-4.085,3.388
	c-1.129,0-2.362-0.35-2.989-0.766L152.432,88.176z"/>
<polygon style="fill:#ffffff;" points="180.799,79.592 177.236,79.592 177.236,78.306 185.908,78.306 185.908,79.592 
	182.327,79.592 182.327,90.018 180.799,90.018 "/>
<path style="fill:#ffffff;" d="M206.107,78.306v6.951c0,2.605,1.164,3.718,2.729,3.718c1.719,0,2.848-1.146,2.848-3.718v-6.951h1.53
	v6.847c0,3.597-1.894,5.058-4.432,5.058c-2.397,0-4.204-1.356-4.204-5.005v-6.899H206.107z"/>
<path style="fill:#ffffff;" d="M233.225,78.479c0.922-0.156,2.018-0.261,3.215-0.261c2.172,0,3.72,0.521,4.746,1.459
	c1.06,0.955,1.668,2.312,1.668,4.206c0,1.911-0.608,3.475-1.687,4.554c-1.112,1.093-2.919,1.685-5.195,1.685
	c-1.096,0-1.982-0.053-2.747-0.138V78.479z M234.738,88.836c0.382,0.053,0.938,0.069,1.528,0.069c3.25,0,4.987-1.807,4.987-4.969
	c0.018-2.765-1.547-4.519-4.743-4.519c-0.784,0-1.374,0.069-1.772,0.155V88.836z"/>
<rect x="262.166" y="78.306" style="fill:#ffffff;" width="1.53" height="11.712"/>
<path style="fill:#ffffff;" d="M293.73,84.04c0,4.015-2.45,6.17-5.44,6.17c-3.11,0-5.266-2.417-5.266-5.963
	c0-3.717,2.295-6.15,5.423-6.15C291.662,78.097,293.73,80.547,293.73,84.04 M284.623,84.214c0,2.52,1.357,4.761,3.755,4.761
	c2.398,0,3.753-2.206,3.753-4.864c0-2.347-1.217-4.78-3.736-4.78C285.876,79.33,284.623,81.659,284.623,84.214"/>
</svg>
